<?xml version="1.0" encoding="utf-8"?>
<!-- Generator: Adobe Illustrator 22.0.1, SVG Export Plug-In . SVG Version: 6.00 Build 0)  -->
<svg version="1.1" id="Capa_1" xmlns="http://www.w3.org/2000/svg" xmlns:xlink="http://www.w3.org/1999/xlink" x="0px" y="0px"
	 viewBox="0 0 285 234" style="enable-background:new 0 0 285 234;" xml:space="preserve">
<style type="text/css">
	.st0{fill:url(#XMLID_2_);}
	.st1{fill:url(#XMLID_5_);}
	.st2{fill:url(#XMLID_6_);}
	.st3{fill:url(#XMLID_7_);}
</style>
<linearGradient id="XMLID_2_" gradientUnits="userSpaceOnUse" x1="62.1106" y1="47.5618" x2="101.9883" y2="183.412">
	<stop  offset="0" style="stop-color:#FFF158"/>
	<stop  offset="1" style="stop-color:#CCB253"/>
</linearGradient>
<path id="XMLID_132_" class="st0" d="M126.2,123.6v104.1H77.8V132c0,0-7.8-101.6-75.1-124c7.7-2.3,15.8-3.5,24.1-3.5
	C81.7,4.4,126.2,57.8,126.2,123.6z"/>
<g id="XMLID_129_">
	<linearGradient id="XMLID_5_" gradientUnits="userSpaceOnUse" x1="159.4781" y1="-14.6167" x2="144.5451" y2="60.5583">
		<stop  offset="0" style="stop-color:#FFF158"/>
		<stop  offset="1" style="stop-color:#CCB253"/>
	</linearGradient>
	<path id="XMLID_130_" class="st1" d="M176.7,4.4c-29.9,0-56.8,15.9-75,41c15.2,20.9,24.4,48.3,24.4,78.2v3.9
		c2.4-19.9,15.8-100,74.6-119.6C193.1,5.6,185,4.4,176.7,4.4z"/>
</g>
<linearGradient id="XMLID_6_" gradientUnits="userSpaceOnUse" x1="258.4193" y1="238.4582" x2="253.7618" y2="180.4619">
	<stop  offset="0" style="stop-color:#FFF158"/>
	<stop  offset="1" style="stop-color:#CCB253"/>
</linearGradient>
<path id="XMLID_3_" class="st2" d="M277.8,156.9c0,19.1-19.2,35.9-48,45.2V227h48v-90.6h0V156.9z"/>
<linearGradient id="XMLID_7_" gradientUnits="userSpaceOnUse" x1="218.7603" y1="149.4038" x2="228.3983" y2="26.4783">
	<stop  offset="0" style="stop-color:#FFF158"/>
	<stop  offset="1" style="stop-color:#CCB253"/>
</linearGradient>
<path id="XMLID_4_" class="st3" d="M277.8,123.6v-4l-0.1,0c-1.5-54.3-34.5-99.2-77-111.6c-8.7,2.9-16.4,7.1-23.2,12.3
	c45.9,34.7,51.9,111.7,51.9,111.7v21.3c0,0-7.8,45-75.1,54.9c7.7,1,15.8,1.6,24.1,1.6c54.9,0,99.4-23.6,99.4-52.8V123.6L277.8,123.6
	C277.8,123.6,277.8,123.6,277.8,123.6z"/>
</svg>
